<svg width="548" height="548" viewBox="0 0 548 548" fill="none" xmlns="http://www.w3.org/2000/svg">
<circle cx="274" cy="274" r="274" fill="#0661A7"/>
<circle cx="274" cy="274" r="196" fill="white"/>
<path d="M451 270C451 369.964 369.964 451 270 451C170.036 451 89 369.964 89 270C89 170.036 170.036 89 270 89C290 261.5 451 170.036 451 270Z" fill="#0072C6"/>
<circle cx="300" cy="246" r="109" fill="#0661A7"/>
<circle cx="294" cy="246" r="75" fill="#0661A7"/>
<circle cx="294" cy="246" r="60" fill="#FFFFFE"/>
<path d="M413 289C413 373.5 344.5 442 260 442C175.5 442 107 373.5 107 289C107 204.501 175.5 136 260 136C267.921 136 275.351 119.738 283.04 103.001C309.5 96.0006 265.5 103.001 318 112.5C370.5 122 316.521 177.841 276 200.048C218.64 231.482 160.341 226.233 163.271 285.42C168.271 386.419 268.75 410.556 318 371C341.087 352.457 350.602 348.507 354.552 311.401C363.55 226.87 420.296 205.662 426.5 206.5C447.59 209.349 413 263.199 413 289Z" fill="#C5C5C5"/>
<path d="M451 270C451 369.964 369.964 451 270 451C170.036 451 89 369.964 89 270C89 170.036 170.036 89 270 89C296.948 89 364.5 100 338.5 134.5C312.5 169 259 178 243 183.5C227 189 155.551 206.04 144 246C128.726 298.841 148 327.5 177.5 360.5C207 393.5 280.237 424.795 338.5 378C365.812 356.064 377.183 340.397 381.856 296.5C392.5 196.5 416.161 192.009 423.5 193C448.449 196.37 451 239.478 451 270Z" fill="white"/>
</svg>
