<svg width="18" height="18" viewBox="0 0 18 18" fill="none" xmlns="http://www.w3.org/2000/svg">
<path d="M0.197998 0.197998H17.802V17.8021H0.197998V0.197998Z" fill="#F0DB4F"/>
<path d="M16.3613 13.6035C16.2323 12.8004 15.7086 12.1258 14.1574 11.4968C13.6185 11.2492 13.0178 11.0718 12.8388 10.6635C12.7752 10.4258 12.7668 10.2919 12.807 10.1481C12.9224 9.68119 13.4797 9.53564 13.9214 9.66951C14.2059 9.76486 14.4752 9.98409 14.6376 10.3338C15.3973 9.84192 15.3957 9.84515 15.9262 9.50709C15.732 9.20601 15.6283 9.06708 15.5012 8.93826C15.0443 8.42794 14.4218 8.16511 13.4262 8.18522L12.9075 8.25229C12.4106 8.37787 11.9369 8.63873 11.6592 8.98847C10.8259 9.93403 11.0635 11.5889 12.0776 12.27C13.0766 13.0198 14.5441 13.1903 14.7316 13.8915C14.914 14.7499 14.1007 15.0277 13.2924 14.929C12.6967 14.8051 12.3654 14.5024 12.0072 13.9518C11.348 14.3333 11.348 14.3333 10.6702 14.7232C10.8309 15.0746 10.9998 15.2336 11.2692 15.5381C12.5444 16.8315 15.7355 16.768 16.3078 14.8102C16.331 14.743 16.4852 14.2947 16.3613 13.6035V13.6035ZM9.76808 8.28886H8.1215L8.11475 12.5459C8.11475 13.4512 8.16158 14.2812 8.01434 14.5356C7.77345 15.0359 7.14922 14.9739 6.86473 14.8769C6.57519 14.7345 6.42795 14.5322 6.25738 14.2462C6.21055 14.164 6.17539 14.1005 6.16358 14.0955L4.82483 14.9154C5.04744 15.3723 5.37538 15.7688 5.79542 16.0265C6.42289 16.4031 7.26622 16.5185 8.14822 16.316C8.72225 16.1488 9.21753 15.8025 9.47684 15.2752C9.85175 14.5841 9.77131 13.7475 9.76794 12.8222C9.77637 11.3126 9.76808 9.80325 9.76808 8.28886Z" fill="#323330"/>
</svg>
